<?xml version="1.0" encoding="UTF-8"?>
<svg id="Layer_2" data-name="Layer 2" xmlns="http://www.w3.org/2000/svg" xmlns:xlink="http://www.w3.org/1999/xlink" viewBox="0 0 51.97 54.77">
  <defs>
    <style>
      .cls-1, .cls-2 {
        fill: #fa7d22;
      }

      .cls-3 {
        fill: #fff;
      }

      .cls-3, .cls-2 {
        fill-rule: evenodd;
      }

      .cls-4 {
        isolation: isolate;
      }

      .cls-5 {
        fill: none;
        stroke: #fff;
        stroke-miterlimit: 10;
        stroke-width: 2px;
      }

      .cls-6 {
        clip-path: url(#clippath);
      }
    </style>
    <clipPath id="clippath">
      <rect class="cls-5" x="7.98" y="1" width="36" height="36" rx="10.07" ry="10.07"/>
    </clipPath>
  </defs>
  <g id="Layer_1-2" data-name="Layer 1">
    <g>
      <path id="Path_1682" data-name="Path 1682" class="cls-3" d="M18.89,47.03c.48,0,.86,.39,.86,.86h0v.86c0,.48,.38,.86,.86,.86h2.58c.48,0,.86-.39,.86-.86v-.86c0-.48,.38-.86,.86-.86h0c.48,0,.86,.39,.86,.86h0v.86c0,1.43-1.15,2.58-2.58,2.58h-2.58c-1.43,0-2.58-1.16-2.58-2.58v-.86c0-.48,.38-.86,.86-.86h0Z"/>
      <path id="Path_1683" data-name="Path 1683" class="cls-2" d="M21.31,53.05c0-.48,.32-.86,.72-.86h2.15c.4,0,.72,.39,.72,.86h0v.86c0,.48-.32,.86-.72,.86h0c-.4,0-.72-.39-.72-.86h-1.43c-.4,0-.72-.39-.72-.86Z"/>
      <path id="Path_1684" data-name="Path 1684" class="cls-3" d="M6.01,47.03c.48,0,.86,.39,.86,.86h0v2.58c0,1.9-1.54,3.44-3.43,3.44-1.9,0-3.43-1.55-3.43-3.45H0v-1.72c0-.48,.38-.86,.86-.86s.86,.39,.86,.86v1.72c0,.95,.77,1.72,1.72,1.72h0c.95,0,1.72-.77,1.72-1.72h0v-2.58c0-.48,.38-.86,.86-.86h0Z"/>
      <path id="Path_1685" data-name="Path 1685" class="cls-3" d="M9.44,47.03c.48,0,.86,.39,.86,.86h0v.86c0,.48,.39,.86,.86,.86h0c.48,0,.86-.39,.86-.86v-.86c0-.48,.38-.86,.86-.86h0c.48,0,.86,.39,.86,.86h0v.86c0,1.43-1.15,2.58-2.58,2.58-1.43,0-2.58-1.16-2.58-2.58v-.86c0-.48,.38-.86,.86-.86h0Z"/>
      <path id="Path_1686" data-name="Path 1686" class="cls-3" d="M6.01,47.03c.48,0,.86,.39,.86,.86h0v.86c0,.48,.39,.86,.86,.86h0c.48,0,.86-.39,.86-.86v-.86c0-.48,.38-.86,.86-.86h0c.48,0,.86,.39,.86,.86h0v.86c0,1.43-1.15,2.58-2.58,2.58-1.43,0-2.58-1.16-2.58-2.58v-.86c0-.48,.38-.86,.86-.86h0Z"/>
      <path id="Path_1694" data-name="Path 1694" class="cls-3" d="M18.89,43.58c-.48,0-.86,.39-.86,.86h0v4.06c0,.72-.49,1.1-.86,1.1h-1.72c-.48,0-.86,.39-.86,.86s.38,.86,.86,.86h1.72c1.52,0,2.58-1.37,2.58-2.82v-4.07c0-.48-.38-.86-.86-.86h0Z"/>
      <path id="Path_1695" data-name="Path 1695" class="cls-3" d="M15.45,43.58c.48,0,.86,.39,.86,.86h0v3.44c0,.48-.38,.86-.86,.86s-.86-.39-.86-.86v-3.44c0-.48,.38-.86,.86-.86h0Z"/>
      <path id="Path_1691" data-name="Path 1691" class="cls-3" d="M30.03,46.92c.48,0,.86,.39,.86,.86h0v.95c0,.44,.37,.79,.8,.78,.02,0,.04,0,.06,0h5.15c.44,.04,.82-.28,.86-.72,0-.02,0-.04,0-.06v-.95c0-.48,.38-.86,.86-.86h0c.48,0,.86,.39,.86,.86h0v.95c0,1.39-1.13,2.5-2.52,2.5h-5.21c-1.39,.04-2.54-1.05-2.58-2.44v-1.01c0-.48,.38-.86,.86-.86h0Z"/>
      <path id="Path_1692" data-name="Path 1692" class="cls-3" d="M34.33,53.9c.47,0,.86-.39,.86-.86s-.39-.86-.86-.86c-.47,0-.86,.39-.86,.86s.39,.86,.86,.86Z"/>
      <path id="Path_1690" data-name="Path 1690" class="cls-3" d="M40.76,52.97c0-.48,.38-.86,.86-.86h2.58c.48,0,.86,.39,.86,.86s-.38,.86-.86,.86h-2.58c-.48,0-.86-.39-.86-.86Z"/>
      <path class="cls-3" d="M51.93,47.86c0,.43-.35,.78-.78,.78h-.78c-.43,0-.78,.35-.78,.78s.35,.78,.78,.78h.78c.43,0,.78,.34,.78,.78s-.35,.78-.78,.78h-.78c-1.29,0-2.33-1.04-2.33-2.33s1.05-2.33,2.33-2.33h.78c.43,0,.78,.34,.78,.78h0Z"/>
      <path class="cls-3" d="M51.19,47.08c-.43,0-.78,.35-.78,.78v3.67c0,.65-.44,.99-.78,.99h-1.55c-.43,0-.78,.35-.78,.78s.34,.78,.78,.78h1.55c1.38,0,2.33-1.24,2.33-2.55v-3.67c0-.43-.34-.78-.78-.78h0Z"/>
      <path class="cls-3" d="M45.05,46.94h0c-.48,0-.86,.39-.86,.86v.95s0,.04,0,.06c-.04,.44-.42,.76-.86,.72h-3.01s-.04,0-.06,0c-.44,0-.79-.34-.8-.78v-.95h0c0-.48-.38-.86-.86-.86h0c-.48,0-.86,.39-.86,.86v1.01c.04,1.39,1.19,2.48,2.58,2.44h3.07c1.39,0,2.51-1.11,2.52-2.5v-.95h0c0-.48-.38-.86-.86-.86h0Z"/>
    </g>
    <g>
      <g class="cls-6">
        <g class="cls-4">
          <path class="cls-1" d="M9.77,37.35c-.1-.06-.18-.13-.28-.19-.44-.32-1.06-.21-1.38,.23-.32,.44-.21,1.06,.23,1.38,.11,.07,.22,.15,.33,.22,1.3,.88,2.73,1.54,4.21,1.97,.37,.1,.74,0,.99-.27,.11-.11,.2-.25,.24-.42,.15-.53-.15-1.08-.68-1.22-1.28-.36-2.5-.93-3.64-1.7Z"/>
          <path class="cls-1" d="M3.83,27.85c.17-.18,.28-.45,.27-.71-.05-1.47,.14-2.93,.58-4.33,.17-.53-.12-1.08-.65-1.24-.53-.17-1.08,.12-1.24,.65-.51,1.61-.73,3.3-.67,5,.02,.54,.48,.97,1.03,.95,.28-.01,.52-.13,.69-.31Z"/>
          <path class="cls-1" d="M6.28,19.49l.03-.05c.82-1.21,1.83-2.27,3-3.13,.04-.03,.09-.08,.12-.11,.33-.34,.37-.88,.08-1.28-.32-.44-.94-.54-1.39-.21-1.35,1-2.53,2.24-3.48,3.63v.03c-.3,.45-.18,1.05,.26,1.35,.45,.32,1.07,.21,1.38-.24Z"/>
          <path class="cls-1" d="M3.51,30.14c-.52,.18-.8,.73-.63,1.25,.54,1.62,1.34,3.11,2.38,4.45,.33,.43,.96,.51,1.39,.18,.04-.03,.07-.06,.11-.1,.33-.35,.37-.9,.07-1.29-.91-1.16-1.59-2.45-2.06-3.85-.18-.53-.74-.81-1.26-.63Z"/>
          <path class="cls-1" d="M24.16,16c.09,.06,.18,.13,.27,.19,.41,.29,.96,.24,1.3-.11,.03-.03,.07-.07,.1-.11,.32-.44,.23-1.06-.21-1.38-.11-.07-.21-.15-.32-.22-1.29-.89-2.71-1.57-4.21-2.01-.52-.16-1.08,.14-1.23,.67-.16,.52,.14,1.08,.67,1.23,1.27,.39,2.5,.97,3.63,1.74Z"/>
          <path class="cls-1" d="M29.84,26.19c.05,1.47-.14,2.93-.58,4.33-.17,.53,.12,1.08,.65,1.24,.37,.12,.76,0,1.01-.26,.1-.11,.18-.24,.22-.39,.51-1.61,.73-3.3,.67-5-.02-.54-.48-.97-1.03-.95-.54,.03-.96,.48-.94,1.03Z"/>
          <path class="cls-1" d="M11.88,12.71c-.52,.19-.78,.76-.59,1.27s.76,.78,1.27,.59c1.38-.5,2.83-.77,4.31-.79,.28,0,.53-.12,.7-.31s.27-.42,.27-.7c0-.54-.46-.99-1-.98-1.71,.03-3.38,.33-4.97,.91Z"/>
          <path class="cls-1" d="M27.65,33.87c-.83,1.22-1.86,2.29-3.03,3.16-.44,.32-.54,.94-.21,1.38,.32,.44,.94,.54,1.38,.21,.68-.5,1.32-1.07,1.91-1.68s1.1-1.26,1.57-1.95l.02-.04c.3-.45,.18-1.06-.28-1.37-.45-.3-1.07-.16-1.37,.29Z"/>
          <path class="cls-1" d="M21.37,38.77c-1.38,.5-2.83,.77-4.3,.78-.54,0-.99,.46-.98,1,0,.54,.46,.99,1,.98,1.69-.02,3.36-.32,4.97-.9,.15-.05,.28-.14,.38-.25,.25-.27,.35-.66,.22-1.02-.2-.52-.76-.79-1.28-.6Z"/>
          <path class="cls-1" d="M27.28,17.33c-.43,.33-.51,.96-.18,1.39,.91,1.16,1.6,2.44,2.06,3.85,.18,.52,.73,.8,1.25,.63,.16-.06,.29-.14,.4-.26,.25-.26,.34-.63,.22-1-.54-1.61-1.35-3.11-2.38-4.45-.33-.43-.96-.51-1.38-.17Z"/>
          <path class="cls-1" d="M8.05,26.49c.04-1.9,.66-3.7,1.81-5.21,.41-.53,.88-1.03,1.38-1.45,.42-.35,.48-.97,.12-1.4-.35-.42-.97-.48-1.4-.12-.62,.51-1.2,1.12-1.69,1.77-1.4,1.85-2.16,4.05-2.21,6.37,0,.54,.43,1,.97,1.01,.29,0,.55-.12,.73-.31s.27-.41,.28-.67Z"/>
          <path class="cls-1" d="M24.85,34.2c.28-.3,.55-.61,.8-.94v-.02c.35-.44,.26-1.06-.18-1.38-.44-.33-1.06-.24-1.38,.2h0c-.2,.28-.43,.53-.66,.78-1.54,1.61-3.62,2.58-5.85,2.72-.54,.04-.96,.51-.92,1.06,.03,.54,.51,.96,1.06,.92,2.73-.18,5.27-1.37,7.15-3.34Z"/>
          <path class="cls-1" d="M14.39,18.14c2.48-.75,5.15-.39,7.32,.97,.41,.26,.92,.18,1.24-.16,.04-.05,.09-.11,.12-.16,.29-.46,.15-1.08-.31-1.36-2.66-1.67-5.92-2.1-8.94-1.19-.53,.15-.83,.71-.66,1.23,.16,.53,.71,.83,1.24,.67Z"/>
          <path class="cls-1" d="M7.41,29.44c-.51,.2-.76,.78-.56,1.29,.58,1.45,1.45,2.74,2.58,3.82,.3,.28,.61,.55,.94,.8,.92,.7,1.93,1.24,3,1.61,.38,.13,.78,.02,1.05-.26,.09-.1,.17-.22,.22-.36,.17-.52-.09-1.08-.61-1.27-.89-.31-1.72-.75-2.46-1.31-.27-.2-.52-.43-.77-.66-.92-.88-1.63-1.94-2.11-3.12-.19-.49-.76-.74-1.28-.54Z"/>
          <path class="cls-1" d="M25.91,20.43c-.32-.45-.94-.56-1.38-.25-.45,.32-.56,.94-.25,1.38,1.47,2.12,1.96,4.77,1.33,7.27-.13,.53,.19,1.07,.72,1.2,.35,.09,.71-.03,.96-.28,.12-.12,.2-.27,.24-.44,.78-3.06,.18-6.3-1.62-8.88Z"/>
          <path class="cls-2" d="M16.98,19.73c1.85,0,3.59,.72,4.9,2.02,1.31,1.31,2.02,3.05,2.04,4.89,0,1.8-.68,3.49-1.92,4.79l-.12,.12c-2.7,2.71-7.1,2.71-9.81,0-1.3-1.3-2.02-3.05-2.02-4.9,0-1.85,.71-3.59,2.03-4.9,1.3-1.31,3.05-2.02,4.9-2.02Zm-3.51,10.44c1.93,1.93,5.08,1.93,7.01,0,1.93-1.93,1.93-5.08,0-7.01-.93-.93-2.17-1.45-3.5-1.45-1.33,0-2.57,.52-3.51,1.45s-1.45,2.17-1.45,3.5c0,1.33,.51,2.57,1.45,3.51Z"/>
        </g>
      </g>
      <rect class="cls-5" x="7.98" y="1" width="36" height="36" rx="10.07" ry="10.07"/>
    </g>
  </g>
</svg>