<?xml version="1.0" encoding="UTF-8"?>
<svg id="Layer_2" data-name="Layer 2" xmlns="http://www.w3.org/2000/svg" viewBox="0 0 247.19 64.03">
  <defs>
    <style>
      .cls-1 {
        fill: #16161d;
      }

      .cls-1, .cls-2 {
        fill-rule: evenodd;
      }

      .cls-2, .cls-3 {
        fill: #206bc4;
      }

      .cls-4 {
        fill: none;
        stroke: #fff;
        stroke-linecap: round;
        stroke-linejoin: round;
        stroke-width: 3px;
      }
    </style>
  </defs>
  <g id="Layer_1-2" data-name="Layer 1">
    <g>
      <path class="cls-3" d="M46.6,41.43c-2.3,0-4.47,.89-6.08,2.51s-2.51,3.77-2.51,6.07c0,2.3,.89,4.47,2.51,6.08,3.35,3.35,8.8,3.35,12.15,0,3.35-3.35,3.35-8.81,0-12.15-1.61-1.62-3.77-2.51-6.07-2.51Z"/>
      <path class="cls-3" d="M22.15,58.21c-.31-.9,.19-1.87,1.09-2.17,.9-.31,1.88,.18,2.18,1.1,.82,2.42,2.01,4.67,3.58,6.68,.04,.06,.06,.12,.09,.18,1.59,.04,3.18,.05,4.77,.02-.12-.11-.25-.22-.37-.33-1.96-1.87-3.47-4.09-4.47-6.62-.34-.88,.09-1.89,.97-2.23,.9-.36,1.89,.08,2.22,.93,.82,2.05,2.05,3.88,3.65,5.41,.42,.4,.86,.79,1.33,1.15,.74,.56,1.54,1.05,2.37,1.46,3.43-.23,6.85-.6,10.26-1.15,5.53-1.4,9.98-5.35,12.07-10.55,.51-3.82-.41-7.71-2.63-10.91-.53-.76-.34-1.84,.44-2.39,.76-.54,1.84-.34,2.39,.44,.59,.84,1.08,1.74,1.52,2.65,.17-1.98,.3-3.96,.37-5.94-.23-.49-.21-1.06,.03-1.54,.14-6.73-.3-13.48-1.38-20.16-1.6-6.3-6.5-11.2-12.8-12.8C38.02-.48,26.02-.48,14.23,1.43,7.93,3.02,3.02,7.93,1.43,14.23-.48,26.02-.48,38.02,1.43,49.82c1.6,6.3,6.5,11.2,12.8,12.8,3.51,.57,7.04,.94,10.58,1.17-1.1-1.74-2-3.61-2.65-5.59Zm33.15,.07l-.2,.21c-4.69,4.7-12.32,4.7-17.01,.01-2.26-2.26-3.51-5.3-3.51-8.5,0-3.21,1.24-6.22,3.51-8.5,2.26-2.26,5.3-3.51,8.5-3.51,3.21,0,6.23,1.25,8.5,3.51,2.28,2.27,3.51,5.3,3.53,8.48,0,3.13-1.18,6.05-3.32,8.3Zm-3.7-31.92c.26-.92,1.22-1.44,2.13-1.17,2.59,.77,5.05,1.94,7.3,3.49,.18,.13,.37,.25,.55,.38,.76,.56,.93,1.64,.37,2.4-.05,.08-.11,.14-.17,.2-.59,.6-1.54,.69-2.25,.18-.16-.1-.31-.23-.47-.33-1.96-1.34-4.09-2.35-6.29-3.02-.92-.26-1.44-1.22-1.16-2.13Zm5.03,7.63c.81,.5,1.06,1.57,.55,2.37-.06,.09-.14,.2-.21,.28-.56,.58-1.44,.72-2.15,.27-3.77-2.36-8.4-2.98-12.7-1.68-.91,.27-1.87-.24-2.15-1.16-.28-.9,.24-1.87,1.15-2.13,5.24-1.57,10.89-.82,15.51,2.07Zm-18.87-8.18c2.76-1.01,5.65-1.53,8.61-1.59,.94,0,1.72,.76,1.73,1.7,0,.48-.17,.9-.48,1.21-.3,.32-.74,.53-1.22,.53-2.56,.03-5.07,.49-7.47,1.37-.9,.33-1.88-.12-2.21-1.02-.33-.9,.12-1.88,1.02-2.21Zm-.88,9.92c.61,.74,.52,1.81-.22,2.42-.88,.73-1.7,1.59-2.4,2.51-2,2.62-3.07,5.74-3.14,9.03,0,.45-.17,.84-.48,1.16-.32,.33-.76,.54-1.27,.53-.94-.02-1.7-.81-1.68-1.76,.08-4.02,1.4-7.84,3.83-11.05,.85-1.13,1.85-2.18,2.93-3.07,.74-.61,1.81-.52,2.42,.21Zm-11.69-.09l.02-.05c1.65-2.42,3.7-4.56,6.03-6.3,.78-.57,1.85-.41,2.41,.36,.51,.69,.43,1.62-.14,2.21-.06,.07-.14,.15-.22,.2-2.02,1.48-3.78,3.32-5.2,5.42l-.05,.08c-.54,.78-1.61,.97-2.4,.42-.76-.53-.97-1.55-.47-2.34Zm-4.37,15.29c-.09-2.95,.29-5.86,1.17-8.66,.29-.91,1.25-1.41,2.16-1.12,.91,.29,1.41,1.25,1.12,2.16-.76,2.44-1.09,4.95-1,7.51,.01,.47-.17,.92-.48,1.24-.29,.3-.71,.51-1.19,.53-.94,.04-1.75-.71-1.78-1.65Z"/>
    </g>
    <g>
      <path id="Path_1682" data-name="Path 1682" class="cls-1" d="M139.88,25.05c1.54,0,2.78,1.25,2.78,2.79h0v2.79c0,1.54,1.24,2.79,2.78,2.79h8.35c1.54,0,2.78-1.25,2.78-2.79v-2.79c0-1.54,1.24-2.79,2.78-2.79h0c1.54,0,2.78,1.25,2.78,2.79h0v2.79c0,4.62-3.73,8.37-8.35,8.38h-8.35c-4.62,0-8.36-3.76-8.35-8.38v-2.79c0-1.54,1.24-2.79,2.78-2.79h0Z"/>
      <path id="Path_1683" data-name="Path 1683" class="cls-2" d="M145.45,44.59c0-1.54,1.25-2.79,2.78-2.79h8.35c1.54,0,2.78,1.25,2.78,2.79h0v2.79c0,1.54-1.24,2.79-2.78,2.79h0c-1.54,0-2.78-1.25-2.78-2.79h-5.57c-1.54,0-2.78-1.25-2.78-2.79Z"/>
      <path id="Path_1684" data-name="Path 1684" class="cls-1" d="M98.11,25.05c1.54,0,2.78,1.25,2.78,2.79h0v8.38c0,6.16-4.98,11.16-11.14,11.17-6.16-.02-11.14-5.02-11.14-11.18h0v-5.59c0-1.54,1.24-2.79,2.78-2.79s2.78,1.25,2.78,2.79v5.59c0,3.08,2.49,5.58,5.57,5.59h0c3.08,0,5.58-2.51,5.57-5.59h0v-8.38c0-1.54,1.24-2.79,2.78-2.79h0Z"/>
      <path id="Path_1685" data-name="Path 1685" class="cls-1" d="M109.25,25.05c1.54,0,2.78,1.25,2.78,2.79h0v2.79c0,1.54,1.25,2.79,2.78,2.79h0c1.54,0,2.78-1.25,2.78-2.79v-2.79c0-1.54,1.24-2.79,2.78-2.79h0c1.54,0,2.78,1.25,2.78,2.79h0v2.79c0,4.62-3.73,8.37-8.35,8.38-4.62,0-8.36-3.76-8.35-8.38v-2.79c0-1.54,1.24-2.79,2.78-2.79h0Z"/>
      <path id="Path_1686" data-name="Path 1686" class="cls-1" d="M98.11,25.05c1.54,0,2.78,1.25,2.78,2.79h0v2.79c0,1.54,1.25,2.79,2.78,2.79h0c1.54,0,2.78-1.25,2.78-2.79v-2.79c0-1.54,1.24-2.79,2.78-2.79h0c1.54,0,2.78,1.25,2.78,2.79h0v2.79c0,4.62-3.73,8.37-8.35,8.38-4.62,0-8.36-3.76-8.35-8.38v-2.79c0-1.54,1.24-2.79,2.78-2.79h0Z"/>
      <path id="Path_1694" data-name="Path 1694" class="cls-1" d="M139.88,13.87c-1.54,0-2.78,1.25-2.78,2.79h0v13.19c0,2.32-1.58,3.57-2.78,3.57h-5.57c-1.54,0-2.78,1.25-2.78,2.79s1.24,2.79,2.78,2.79h5.57c4.94,0,8.35-4.45,8.35-9.15v-13.19c0-1.54-1.24-2.79-2.78-2.79h0Z"/>
      <path id="Path_1695" data-name="Path 1695" class="cls-1" d="M128.75,13.87c1.54,0,2.78,1.25,2.78,2.79h0v11.17c0,1.54-1.24,2.79-2.78,2.79s-2.78-1.25-2.78-2.79v-11.17c0-1.54,1.24-2.79,2.78-2.79h0Z"/>
      <path id="Path_1691" data-name="Path 1691" class="cls-1" d="M176.03,24.71c1.54,0,2.78,1.25,2.78,2.79h0v3.07c.02,1.41,1.19,2.55,2.6,2.52,.06,0,.12,0,.18,0h16.71c1.41,.12,2.65-.92,2.78-2.33v-3.25c0-1.54,1.24-2.79,2.78-2.79h0c1.54,0,2.78,1.25,2.78,2.79h0v3.07c-.02,4.49-3.67,8.12-8.16,8.1h-16.9c-4.49,.12-8.23-3.42-8.35-7.9v-3.26c0-1.54,1.24-2.79,2.78-2.79h0Z"/>
      <path id="Path_1692" data-name="Path 1692" class="cls-1" d="M189.96,47.34c1.54,0,2.78-1.25,2.78-2.79s-1.25-2.78-2.78-2.79c-1.54,0-2.78,1.25-2.78,2.79s1.25,2.78,2.78,2.79Z"/>
      <path id="Path_1690" data-name="Path 1690" class="cls-1" d="M210.82,44.31c0-1.54,1.24-2.79,2.78-2.79h8.35c1.54,0,2.78,1.25,2.78,2.79s-1.24,2.79-2.78,2.79h-8.35c-1.54,0-2.78-1.25-2.78-2.79Z"/>
      <path class="cls-1" d="M247.06,27.75c0,1.4-1.13,2.52-2.52,2.52h-2.52c-1.4,0-2.52,1.13-2.52,2.52s1.13,2.52,2.52,2.52h2.52c1.4,0,2.52,1.12,2.52,2.52s-1.13,2.52-2.52,2.52h-2.52c-4.17,0-7.56-3.37-7.56-7.55s3.39-7.55,7.57-7.55h2.52c1.4,0,2.52,1.12,2.52,2.52h0Z"/>
      <path class="cls-1" d="M244.67,25.24c-1.4,0-2.52,1.13-2.52,2.52v11.91c0,2.1-1.42,3.23-2.52,3.23h-5.03c-1.4,0-2.52,1.13-2.52,2.52s1.12,2.52,2.52,2.52h5.03c4.47,0,7.55-4.02,7.55-8.27v-11.91c0-1.4-1.12-2.52-2.52-2.52h0Z"/>
      <path class="cls-1" d="M224.75,24.76h0c-1.54,0-2.78,1.25-2.78,2.79v3.25c-.12,1.41-1.36,2.45-2.78,2.33h-9.77c-.06,0-.12,0-.18,0-1.41,.02-2.58-1.11-2.6-2.52v-3.07h0c0-1.54-1.24-2.79-2.78-2.79h0c-1.54,0-2.78,1.25-2.78,2.79v3.26c.12,4.49,3.86,8.03,8.35,7.9h9.96c4.49,.02,8.15-3.61,8.16-8.1v-3.07h0c0-1.54-1.24-2.79-2.78-2.79h0Z"/>
    </g>
    <path class="cls-4" d="M12.47,17.1h8.13m-4.07-4.07v8.13"/>
  </g>
</svg>