<?xml version="1.0" encoding="UTF-8"?>
<svg id="Layer_2" data-name="Layer 2" xmlns="http://www.w3.org/2000/svg" xmlns:xlink="http://www.w3.org/1999/xlink" viewBox="0 0 247.19 64.05">
  <defs>
    <style>
      .cls-1, .cls-2 {
        fill: #fff;
      }

      .cls-2, .cls-3 {
        fill-rule: evenodd;
      }

      .cls-3, .cls-4 {
        fill: #206bc4;
      }

      .cls-5 {
        clip-path: url(#clippath);
      }

      .cls-6 {
        fill: none;
        stroke: #fff;
        stroke-linecap: round;
        stroke-linejoin: round;
        stroke-width: 3px;
      }
    </style>
    <clipPath id="clippath">
      <path class="cls-4" d="M62.62,14.23c-1.6-6.3-6.5-11.2-12.8-12.8C38.02-.48,26.02-.48,14.23,1.43,7.92,3.02,3.02,7.92,1.43,14.23-.48,26.02-.48,38.02,1.43,49.82c1.6,6.3,6.5,11.2,12.8,12.8,11.8,1.9,23.8,1.9,35.6,0,6.3-1.6,11.2-6.5,12.8-12.8,1.9-11.8,1.9-23.8,0-35.6Z"/>
    </clipPath>
  </defs>
  <g id="Layer_1-2" data-name="Layer 1">
    <g>
      <g>
        <path class="cls-4" d="M62.62,14.23c-1.6-6.3-6.5-11.2-12.8-12.8C38.02-.48,26.02-.48,14.23,1.43,7.92,3.02,3.02,7.92,1.43,14.23-.48,26.02-.48,38.02,1.43,49.82c1.6,6.3,6.5,11.2,12.8,12.8,11.8,1.9,23.8,1.9,35.6,0,6.3-1.6,11.2-6.5,12.8-12.8,1.9-11.8,1.9-23.8,0-35.6Z"/>
        <g class="cls-5">
          <g>
            <path class="cls-1" d="M23.79,52.06c.3-.32,.49-.77,.48-1.24-.08-2.56,.24-5.07,1-7.51,.29-.91-.21-1.87-1.12-2.16-.91-.29-1.87,.21-2.16,1.12-.88,2.8-1.26,5.72-1.17,8.66,.03,.94,.84,1.69,1.78,1.65,.48-.02,.9-.23,1.19-.53Z"/>
            <path class="cls-1" d="M28.04,37.57l.05-.08c1.43-2.1,3.18-3.94,5.2-5.42,.08-.05,.15-.13,.22-.2,.57-.6,.65-1.53,.14-2.21-.56-.76-1.64-.93-2.41-.36-2.34,1.74-4.38,3.88-6.03,6.3l-.02,.05c-.5,.79-.29,1.82,.47,2.34,.79,.55,1.86,.36,2.4-.42Z"/>
            <path class="cls-1" d="M23.23,56.03c-.9,.31-1.39,1.27-1.09,2.17,.93,2.81,2.32,5.4,4.13,7.71,.57,.75,1.66,.88,2.41,.31,.08-.05,.13-.11,.19-.17,.58-.61,.64-1.57,.12-2.24-1.57-2.01-2.76-4.25-3.58-6.68-.31-.92-1.29-1.4-2.18-1.1Z"/>
            <path class="cls-1" d="M59.06,31.51c.16,.1,.31,.23,.47,.33,.7,.51,1.66,.42,2.25-.18,.05-.05,.11-.12,.17-.2,.56-.76,.39-1.84-.37-2.4-.18-.13-.37-.25-.55-.38-2.24-1.55-4.7-2.72-7.3-3.49-.91-.27-1.87,.24-2.13,1.17-.27,.91,.24,1.87,1.16,2.13,2.21,.67,4.34,1.68,6.29,3.02Z"/>
            <path class="cls-1" d="M68.9,49.19c.08,2.56-.24,5.07-1,7.51-.29,.91,.21,1.87,1.12,2.16,.64,.2,1.32,0,1.75-.45,.18-.19,.31-.41,.39-.67,.88-2.8,1.26-5.72,1.16-8.68-.03-.94-.84-1.69-1.78-1.65-.93,.05-1.66,.84-1.63,1.78Z"/>
            <path class="cls-1" d="M37.75,25.81c-.9,.33-1.35,1.31-1.02,2.21s1.31,1.35,2.21,1.02c2.4-.87,4.91-1.33,7.47-1.37,.48,0,.91-.22,1.22-.53s.47-.74,.48-1.21c0-.94-.79-1.71-1.73-1.7-2.96,.06-5.86,.58-8.61,1.59Z"/>
            <path class="cls-1" d="M65.11,62.51c-1.44,2.12-3.22,3.98-5.25,5.48-.76,.56-.93,1.64-.37,2.4,.56,.76,1.64,.93,2.4,.37,1.18-.87,2.3-1.85,3.32-2.92s1.91-2.19,2.73-3.39l.04-.07c.52-.79,.31-1.83-.48-2.38-.77-.51-1.86-.28-2.38,.51Z"/>
            <path class="cls-1" d="M64.47,33.82c-.75,.57-.88,1.66-.31,2.41,1.57,2.01,2.77,4.24,3.58,6.68,.31,.9,1.27,1.39,2.17,1.09,.27-.1,.51-.24,.7-.44,.43-.45,.6-1.1,.39-1.73-.94-2.8-2.34-5.39-4.13-7.71-.57-.75-1.66-.88-2.4-.29Z"/>
            <path class="cls-1" d="M31.12,49.71c.07-3.3,1.14-6.41,3.14-9.03,.7-.92,1.52-1.78,2.4-2.51,.74-.61,.83-1.69,.22-2.42-.61-.74-1.69-.83-2.42-.21-1.08,.89-2.08,1.94-2.93,3.07-2.43,3.21-3.76,7.03-3.83,11.05-.02,.94,.74,1.74,1.68,1.76,.5,0,.95-.2,1.27-.53s.47-.71,.48-1.16Z"/>
            <path class="cls-1" d="M60.24,63.08c.49-.52,.96-1.06,1.38-1.64l.03-.03c.58-.76,.42-1.85-.34-2.4-.76-.58-1.83-.41-2.4,.34h-.01c-.35,.49-.74,.92-1.15,1.35-2.66,2.79-6.27,4.48-10.14,4.72-.94,.06-1.66,.89-1.6,1.83,.06,.94,.89,1.66,1.83,1.6,4.74-.31,9.14-2.37,12.39-5.79Z"/>
            <path class="cls-1" d="M42.11,35.23c4.3-1.3,8.93-.68,12.7,1.68,.71,.45,1.6,.31,2.15-.27,.08-.08,.15-.18,.21-.28,.51-.8,.27-1.87-.55-2.37-4.62-2.89-10.27-3.64-15.51-2.07-.91,.27-1.43,1.24-1.15,2.13,.28,.92,1.24,1.43,2.15,1.16Z"/>
            <path class="cls-1" d="M29.99,54.83c-.88,.34-1.31,1.35-.97,2.23,1,2.52,2.51,4.75,4.47,6.62,.52,.49,1.06,.96,1.64,1.38,1.59,1.22,3.35,2.16,5.21,2.8,.66,.23,1.36,.03,1.81-.44,.16-.17,.29-.38,.37-.63,.3-.9-.16-1.87-1.06-2.2-1.54-.53-2.98-1.3-4.27-2.28-.47-.35-.91-.74-1.33-1.15-1.6-1.53-2.83-3.36-3.65-5.41-.33-.85-1.32-1.29-2.22-.93Z"/>
            <path class="cls-1" d="M62.08,39.2c-.55-.78-1.63-.97-2.39-.44-.78,.55-.97,1.63-.44,2.39,2.55,3.68,3.4,8.27,2.31,12.62-.22,.92,.33,1.85,1.25,2.08,.61,.15,1.24-.05,1.66-.49,.2-.21,.35-.47,.42-.76,1.35-5.31,.32-10.92-2.81-15.4Z"/>
            <path class="cls-2" d="M46.59,37.99c3.21,0,6.23,1.25,8.5,3.51,2.28,2.27,3.51,5.3,3.53,8.48,0,3.13-1.18,6.05-3.32,8.3l-.2,.21c-4.69,4.7-12.32,4.7-17.01,.01-2.26-2.26-3.51-5.3-3.51-8.5,0-3.21,1.24-6.22,3.51-8.5,2.26-2.26,5.3-3.51,8.5-3.51Zm-6.09,18.1c3.35,3.35,8.8,3.35,12.15,0,3.35-3.35,3.35-8.81,0-12.15-1.61-1.62-3.77-2.51-6.07-2.51-2.3,0-4.47,.89-6.08,2.51s-2.51,3.77-2.51,6.07c0,2.3,.89,4.47,2.51,6.08Z"/>
          </g>
        </g>
      </g>
      <path class="cls-6" d="M10.99,20.29h8.13m-4.07-4.07v8.13"/>
    </g>
    <g>
      <path id="Path_1682" data-name="Path 1682" class="cls-2" d="M139.88,25.05c1.54,0,2.78,1.25,2.78,2.79h0v2.79c0,1.54,1.24,2.79,2.78,2.79h8.35c1.54,0,2.78-1.25,2.78-2.79v-2.79c0-1.54,1.24-2.79,2.78-2.79h0c1.54,0,2.78,1.25,2.78,2.79h0v2.79c0,4.62-3.73,8.37-8.35,8.38h-8.35c-4.62,0-8.36-3.76-8.35-8.38v-2.79c0-1.54,1.24-2.79,2.78-2.79h0Z"/>
      <path id="Path_1683" data-name="Path 1683" class="cls-3" d="M145.45,44.59c0-1.54,1.25-2.79,2.78-2.79h8.35c1.54,0,2.78,1.25,2.78,2.79h0v2.79c0,1.54-1.24,2.79-2.78,2.79h0c-1.54,0-2.78-1.25-2.78-2.79h-5.57c-1.54,0-2.78-1.25-2.78-2.79Z"/>
      <path id="Path_1684" data-name="Path 1684" class="cls-2" d="M98.11,25.05c1.54,0,2.78,1.25,2.78,2.79h0v8.38c0,6.16-4.98,11.16-11.14,11.17-6.16-.02-11.14-5.02-11.14-11.18h0v-5.59c0-1.54,1.24-2.79,2.78-2.79s2.78,1.25,2.78,2.79v5.59c0,3.08,2.49,5.58,5.57,5.59h0c3.08,0,5.58-2.51,5.57-5.59h0v-8.38c0-1.54,1.24-2.79,2.78-2.79h0Z"/>
      <path id="Path_1685" data-name="Path 1685" class="cls-2" d="M109.25,25.05c1.54,0,2.78,1.25,2.78,2.79h0v2.79c0,1.54,1.25,2.79,2.78,2.79h0c1.54,0,2.78-1.25,2.78-2.79v-2.79c0-1.54,1.24-2.79,2.78-2.79h0c1.54,0,2.78,1.25,2.78,2.79h0v2.79c0,4.62-3.73,8.37-8.35,8.38-4.62,0-8.36-3.76-8.35-8.38v-2.79c0-1.54,1.24-2.79,2.78-2.79h0Z"/>
      <path id="Path_1686" data-name="Path 1686" class="cls-2" d="M98.11,25.05c1.54,0,2.78,1.25,2.78,2.79h0v2.79c0,1.54,1.25,2.79,2.78,2.79h0c1.54,0,2.78-1.25,2.78-2.79v-2.79c0-1.54,1.24-2.79,2.78-2.79h0c1.54,0,2.78,1.25,2.78,2.79h0v2.79c0,4.62-3.73,8.37-8.35,8.38-4.62,0-8.36-3.76-8.35-8.38v-2.79c0-1.54,1.24-2.79,2.78-2.79h0Z"/>
      <path id="Path_1694" data-name="Path 1694" class="cls-2" d="M139.88,13.87c-1.54,0-2.78,1.25-2.78,2.79h0v13.19c0,2.32-1.58,3.57-2.78,3.57h-5.57c-1.54,0-2.78,1.25-2.78,2.79s1.24,2.79,2.78,2.79h5.57c4.94,0,8.35-4.45,8.35-9.15v-13.19c0-1.54-1.24-2.79-2.78-2.79h0Z"/>
      <path id="Path_1695" data-name="Path 1695" class="cls-2" d="M128.75,13.87c1.54,0,2.78,1.25,2.78,2.79h0v11.17c0,1.54-1.24,2.79-2.78,2.79s-2.78-1.25-2.78-2.79v-11.17c0-1.54,1.24-2.79,2.78-2.79h0Z"/>
      <path id="Path_1691" data-name="Path 1691" class="cls-2" d="M176.03,24.71c1.54,0,2.78,1.25,2.78,2.79h0v3.07c.02,1.41,1.19,2.55,2.6,2.52,.06,0,.12,0,.18,0h16.71c1.41,.12,2.65-.92,2.78-2.33v-3.25c0-1.54,1.24-2.79,2.78-2.79h0c1.54,0,2.78,1.25,2.78,2.79h0v3.07c-.02,4.49-3.67,8.12-8.16,8.1h-16.9c-4.49,.12-8.23-3.42-8.35-7.9v-3.26c0-1.54,1.24-2.79,2.78-2.79h0Z"/>
      <path id="Path_1692" data-name="Path 1692" class="cls-2" d="M189.96,47.34c1.54,0,2.78-1.25,2.78-2.79s-1.25-2.78-2.78-2.79c-1.54,0-2.78,1.25-2.78,2.79s1.25,2.78,2.78,2.79Z"/>
      <path id="Path_1690" data-name="Path 1690" class="cls-2" d="M210.82,44.31c0-1.54,1.24-2.79,2.78-2.79h8.35c1.54,0,2.78,1.25,2.78,2.79s-1.24,2.79-2.78,2.79h-8.35c-1.54,0-2.78-1.25-2.78-2.79Z"/>
      <path class="cls-2" d="M247.06,27.75c0,1.4-1.13,2.52-2.52,2.52h-2.52c-1.4,0-2.52,1.13-2.52,2.52s1.13,2.52,2.52,2.52h2.52c1.4,0,2.52,1.12,2.52,2.52s-1.13,2.52-2.52,2.52h-2.52c-4.17,0-7.56-3.37-7.56-7.55s3.39-7.55,7.57-7.55h2.52c1.4,0,2.52,1.12,2.52,2.52h0Z"/>
      <path class="cls-2" d="M244.67,25.24c-1.4,0-2.52,1.13-2.52,2.52v11.91c0,2.1-1.42,3.23-2.52,3.23h-5.03c-1.4,0-2.52,1.13-2.52,2.52s1.12,2.52,2.52,2.52h5.03c4.47,0,7.55-4.02,7.55-8.27v-11.91c0-1.4-1.12-2.52-2.52-2.52h0Z"/>
      <path class="cls-2" d="M224.75,24.76h0c-1.54,0-2.78,1.25-2.78,2.79v3.25c-.12,1.41-1.36,2.45-2.78,2.33h-9.77c-.06,0-.12,0-.18,0-1.41,.02-2.58-1.11-2.6-2.52v-3.07h0c0-1.54-1.24-2.79-2.78-2.79h0c-1.54,0-2.78,1.25-2.78,2.79v3.26c.12,4.49,3.86,8.03,8.35,7.9h9.96c4.49,.02,8.15-3.61,8.16-8.1v-3.07h0c0-1.54-1.24-2.79-2.78-2.79h0Z"/>
    </g>
  </g>
</svg>