<?xml version="1.0" encoding="UTF-8"?>
<svg id="Layer_2" data-name="Layer 2" xmlns="http://www.w3.org/2000/svg" xmlns:xlink="http://www.w3.org/1999/xlink" viewBox="0 0 194.33 177.77">
  <defs>
    <style>
      .cls-1, .cls-2 {
        fill: #fff;
      }

      .cls-2 {
        fill-rule: evenodd;
      }

      .cls-3 {
        fill: none;
        stroke: #fff;
        stroke-miterlimit: 10;
        stroke-width: 2px;
      }

      .cls-4 {
        clip-path: url(#clippath);
      }
    </style>
    <clipPath id="clippath">
      <rect class="cls-3" x="43.97" y="1" width="114.4" height="119.5" rx="20.44" ry="20.44"/>
    </clipPath>
  </defs>
  <g id="Layer_1-2" data-name="Layer 1">
    <g>
      <g class="cls-4">
        <g>
          <path class="cls-1" d="M46.36,131.43c-.37-.24-.68-.49-1.05-.73-1.64-1.19-3.98-.8-5.16,.85-1.19,1.64-.8,3.98,.84,5.16,.4,.27,.82,.57,1.22,.84,4.87,3.29,10.2,5.75,15.75,7.35,1.37,.39,2.76-.04,3.68-1.01,.41-.43,.73-.94,.88-1.55,.57-1.96-.57-4.03-2.56-4.57-4.77-1.34-9.36-3.49-13.61-6.34Z"/>
          <path class="cls-1" d="M24.16,95.91c.65-.68,1.05-1.67,1.03-2.67-.18-5.51,.53-10.94,2.16-16.19,.62-1.97-.46-4.03-2.42-4.65-1.97-.62-4.03,.46-4.65,2.42-1.9,6.04-2.73,12.33-2.52,18.68,.07,2.03,1.81,3.64,3.85,3.56,1.03-.05,1.94-.49,2.57-1.15Z"/>
          <path class="cls-1" d="M33.33,64.67l.11-.17c3.07-4.53,6.86-8.5,11.21-11.69,.16-.12,.33-.29,.46-.43,1.22-1.28,1.4-3.29,.31-4.77-1.21-1.64-3.53-2.01-5.2-.77-5.04,3.74-9.45,8.36-13.01,13.57l-.05,.11c-1.08,1.7-.63,3.92,1.01,5.05,1.7,1.19,4,.77,5.16-.9Z"/>
          <path class="cls-1" d="M22.96,104.47c-1.94,.66-3,2.75-2.34,4.68,2.01,6.06,5.01,11.65,8.91,16.63,1.24,1.62,3.58,1.89,5.2,.66,.16-.12,.27-.23,.41-.37,1.25-1.31,1.37-3.38,.25-4.83-3.39-4.32-5.95-9.17-7.72-14.4-.66-1.99-2.77-3.03-4.71-2.37Z"/>
          <path class="cls-1" d="M100.2,51.61c.34,.22,.67,.49,1.01,.71,1.52,1.09,3.58,.9,4.84-.4,.11-.11,.25-.25,.36-.42,1.21-1.63,.84-3.97-.79-5.17-.39-.27-.79-.55-1.18-.82-4.84-3.34-10.13-5.86-15.73-7.51-1.96-.59-4.03,.53-4.59,2.51-.59,1.96,.52,4.03,2.51,4.59,4.76,1.44,9.35,3.61,13.57,6.51Z"/>
          <path class="cls-1" d="M121.41,89.72c.18,5.51-.53,10.94-2.16,16.19-.62,1.97,.46,4.03,2.42,4.65,1.38,.44,2.84-.01,3.77-.98,.38-.4,.68-.88,.83-1.44,1.9-6.04,2.73-12.33,2.49-18.71-.07-2.03-1.81-3.64-3.85-3.56-2,.1-3.58,1.81-3.51,3.85Z"/>
          <path class="cls-1" d="M54.27,39.32c-1.93,.71-2.92,2.83-2.2,4.76s2.83,2.92,4.76,2.2c5.17-1.88,10.58-2.87,16.1-2.94,1.03,0,1.97-.46,2.62-1.15s1.02-1.58,1.03-2.62c-.02-2.03-1.7-3.7-3.74-3.68-6.38,.12-12.63,1.24-18.57,3.42Z"/>
          <path class="cls-1" d="M113.23,118.43c-3.1,4.56-6.94,8.58-11.32,11.81-1.64,1.21-2.01,3.53-.8,5.18,1.21,1.64,3.53,2.01,5.17,.8,2.55-1.87,4.95-3.99,7.16-6.3s4.13-4.72,5.88-7.3l.08-.14c1.13-1.7,.66-3.95-1.04-5.13-1.67-1.1-4-.6-5.13,1.1Z"/>
          <path class="cls-1" d="M89.77,136.74c-5.17,1.88-10.58,2.87-16.07,2.91-2.03,.02-3.7,1.7-3.68,3.74,.02,2.03,1.7,3.7,3.74,3.68,6.33-.07,12.57-1.19,18.57-3.36,.55-.18,1.05-.53,1.43-.93,.95-1,1.31-2.46,.8-3.81-.74-1.96-2.86-2.94-4.79-2.23Z"/>
          <path class="cls-1" d="M111.86,56.58c-1.62,1.24-1.9,3.58-.66,5.2,3.39,4.32,5.98,9.14,7.72,14.4,.66,1.94,2.75,3,4.68,2.34,.58-.21,1.1-.53,1.51-.96,.93-.97,1.28-2.37,.83-3.73-2.03-6.03-5.03-11.62-8.91-16.63-1.24-1.62-3.58-1.89-5.17-.63Z"/>
          <path class="cls-1" d="M39.96,90.83c.14-7.11,2.47-13.83,6.77-19.48,1.52-1.99,3.28-3.84,5.17-5.42,1.59-1.32,1.78-3.64,.46-5.22-1.32-1.59-3.64-1.78-5.22-.46-2.32,1.92-4.47,4.17-6.31,6.62-5.25,6.92-8.1,15.16-8.26,23.83-.04,2.04,1.59,3.75,3.63,3.79,1.09,0,2.05-.44,2.73-1.15s1.02-1.53,1.03-2.5Z"/>
          <path class="cls-1" d="M102.75,119.65c1.06-1.11,2.07-2.28,2.98-3.53l.05-.06c1.24-1.65,.91-3.98-.73-5.17-1.65-1.24-3.95-.88-5.17,.73l-.03,.03c-.76,1.02-1.6,1.96-2.47,2.87-5.74,6.02-13.52,9.66-21.87,10.19-2.03,.13-3.58,1.92-3.45,3.96,.13,2.03,1.92,3.58,3.95,3.45,10.21-.66,19.7-5.12,26.72-12.47Z"/>
          <path class="cls-1" d="M63.65,59.61c9.27-2.81,19.25-1.46,27.37,3.62,1.53,.97,3.44,.67,4.64-.58,.16-.17,.33-.4,.46-.6,1.1-1.73,.58-4.03-1.18-5.1-9.96-6.23-22.15-7.84-33.44-4.45-1.97,.58-3.09,2.66-2.49,4.6,.6,1.99,2.66,3.09,4.63,2.51Z"/>
          <path class="cls-1" d="M37.54,101.87c-1.91,.74-2.83,2.91-2.09,4.82,2.16,5.44,5.42,10.24,9.64,14.27,1.11,1.06,2.28,2.07,3.53,2.98,3.43,2.62,7.22,4.65,11.23,6.04,1.43,.5,2.93,.07,3.91-.96,.35-.37,.62-.82,.8-1.36,.65-1.94-.34-4.03-2.28-4.74-3.32-1.15-6.42-2.8-9.2-4.91-1.02-.76-1.96-1.6-2.87-2.47-3.45-3.29-6.1-7.24-7.88-11.66-.71-1.82-2.85-2.78-4.78-2.01Z"/>
          <path class="cls-1" d="M106.72,68.19c-1.18-1.67-3.5-2.09-5.15-.94-1.67,1.18-2.09,3.51-.94,5.15,5.51,7.93,7.32,17.83,4.98,27.2-.48,1.99,.71,4,2.7,4.48,1.32,.33,2.67-.12,3.57-1.06,.44-.46,.76-1.02,.91-1.64,2.91-11.44,.68-23.54-6.06-33.19Z"/>
          <path class="cls-2" d="M73.32,65.57c6.91,0,13.44,2.69,18.32,7.57,4.91,4.9,7.57,11.42,7.61,18.27-.01,6.75-2.54,13.05-7.17,17.9l-.44,.46c-10.11,10.13-26.55,10.13-36.68,.03-4.88-4.87-7.57-11.42-7.56-18.33,0-6.91,2.67-13.41,7.58-18.32,4.88-4.88,11.42-7.57,18.33-7.57Zm-13.12,39.03c7.22,7.22,18.98,7.22,26.2,0,7.22-7.22,7.23-18.98,0-26.2-3.48-3.49-8.12-5.41-13.09-5.41-4.96,0-9.63,1.93-13.11,5.41s-5.41,8.13-5.41,13.09c0,4.96,1.92,9.63,5.4,13.11Z"/>
        </g>
      </g>
      <rect class="cls-3" x="43.97" y="1" width="114.4" height="119.5" rx="20.44" ry="20.44"/>
    </g>
    <g>
      <path id="Path_1682" data-name="Path 1682" class="cls-2" d="M70.63,148.8c1.78,0,3.21,1.44,3.21,3.22h0v3.22c0,1.78,1.43,3.22,3.21,3.22h9.63c1.78,0,3.21-1.44,3.21-3.22v-3.22c0-1.78,1.43-3.22,3.21-3.22h0c1.78,0,3.21,1.44,3.21,3.22h0v3.22c0,5.33-4.3,9.65-9.63,9.66h-9.63c-5.33,0-9.64-4.33-9.63-9.66v-3.22c0-1.78,1.43-3.22,3.21-3.22h0Z"/>
      <path id="Path_1683" data-name="Path 1683" class="cls-2" d="M77.05,171.33c0-1.78,1.44-3.22,3.21-3.22h9.63c1.78,0,3.21,1.44,3.21,3.22h0v3.22c0,1.78-1.43,3.22-3.21,3.22h0c-1.78,0-3.21-1.44-3.21-3.22h-6.42c-1.77,0-3.21-1.44-3.21-3.22Z"/>
      <path id="Path_1684" data-name="Path 1684" class="cls-2" d="M22.47,148.8c1.78,0,3.21,1.44,3.21,3.22h0v9.66c0,7.1-5.74,12.87-12.84,12.88-7.1-.02-12.84-5.79-12.84-12.89H0v-6.44c0-1.78,1.43-3.22,3.21-3.22s3.21,1.44,3.21,3.22v6.44c0,3.55,2.87,6.43,6.42,6.44h0c3.55,0,6.43-2.89,6.42-6.44h0v-9.66c0-1.78,1.43-3.22,3.21-3.22h0Z"/>
      <path id="Path_1685" data-name="Path 1685" class="cls-2" d="M35.31,148.8c1.78,0,3.21,1.44,3.21,3.22h0v3.22c0,1.78,1.44,3.22,3.21,3.22h0c1.78,0,3.21-1.44,3.21-3.22v-3.22c0-1.78,1.43-3.22,3.21-3.22h0c1.78,0,3.21,1.44,3.21,3.22h0v3.22c0,5.33-4.3,9.65-9.63,9.66-5.33,0-9.64-4.33-9.63-9.66v-3.22c0-1.78,1.43-3.22,3.21-3.22h0Z"/>
      <path id="Path_1686" data-name="Path 1686" class="cls-2" d="M22.47,148.8c1.78,0,3.21,1.44,3.21,3.22h0v3.22c0,1.78,1.44,3.22,3.21,3.22h0c1.78,0,3.21-1.44,3.21-3.22v-3.22c0-1.78,1.43-3.22,3.21-3.22h0c1.78,0,3.21,1.44,3.21,3.22h0v3.22c0,5.33-4.3,9.65-9.63,9.66-5.33,0-9.64-4.33-9.63-9.66v-3.22c0-1.78,1.43-3.22,3.21-3.22h0Z"/>
      <path id="Path_1694" data-name="Path 1694" class="cls-2" d="M70.63,135.92c-1.78,0-3.21,1.44-3.21,3.22h0v15.2c0,2.68-1.82,4.12-3.21,4.12h-6.42c-1.78,0-3.21,1.44-3.21,3.22s1.43,3.22,3.21,3.22h6.42c5.7,0,9.63-5.13,9.63-10.55v-15.21c0-1.78-1.43-3.22-3.21-3.22h0Z"/>
      <path id="Path_1695" data-name="Path 1695" class="cls-2" d="M57.79,135.92c1.78,0,3.21,1.44,3.21,3.22h0v12.88c0,1.78-1.43,3.22-3.21,3.22s-3.21-1.44-3.21-3.22v-12.88c0-1.78,1.43-3.22,3.21-3.22h0Z"/>
      <path id="Path_1691" data-name="Path 1691" class="cls-2" d="M112.3,148.41c1.78,0,3.21,1.44,3.21,3.22h0v3.54c.02,1.63,1.37,2.94,3,2.91,.07,0,.14,0,.21-.01h19.26c1.63,.14,3.06-1.06,3.2-2.69,0-.07,0-.14,0-.21v-3.54c0-1.78,1.43-3.22,3.21-3.22h0c1.78,0,3.21,1.44,3.21,3.22h0v3.54c-.02,5.18-4.23,9.36-9.41,9.34h-19.48c-5.18,.14-9.49-3.94-9.63-9.11v-3.76c0-1.78,1.43-3.22,3.21-3.22h0Z"/>
      <path id="Path_1692" data-name="Path 1692" class="cls-2" d="M128.36,174.5c1.77,0,3.21-1.44,3.21-3.22s-1.44-3.21-3.21-3.22c-1.77,0-3.21,1.44-3.21,3.22s1.44,3.21,3.21,3.22Z"/>
      <path id="Path_1690" data-name="Path 1690" class="cls-2" d="M152.41,171.01c0-1.78,1.43-3.22,3.21-3.22h9.63c1.78,0,3.21,1.44,3.21,3.22s-1.43,3.22-3.21,3.22h-9.63c-1.78,0-3.21-1.44-3.21-3.22Z"/>
      <path class="cls-2" d="M194.18,151.92c0,1.61-1.3,2.9-2.91,2.9h-2.91c-1.61,0-2.91,1.3-2.91,2.9s1.3,2.9,2.91,2.9h2.91c1.61,0,2.91,1.29,2.91,2.9s-1.3,2.9-2.91,2.9h-2.91c-4.81,0-8.72-3.89-8.72-8.7s3.91-8.7,8.73-8.7h2.91c1.61,0,2.91,1.29,2.91,2.9h0Z"/>
      <path class="cls-2" d="M191.43,149.02c-1.61,0-2.9,1.3-2.9,2.91v13.73c0,2.42-1.64,3.72-2.9,3.72h-5.8c-1.61,0-2.9,1.3-2.9,2.9s1.29,2.91,2.9,2.91h5.8c5.15,0,8.7-4.64,8.7-9.53v-13.73c0-1.61-1.29-2.91-2.9-2.91h0Z"/>
      <path class="cls-2" d="M168.46,148.47h0c-1.78,0-3.21,1.44-3.21,3.22v3.54c0,.07,0,.14,0,.21-.14,1.63-1.57,2.83-3.2,2.69h-11.26c-.07,0-.14,0-.21,.01-1.63,.02-2.97-1.28-3-2.91v-3.54h0c0-1.78-1.43-3.22-3.21-3.22h0c-1.78,0-3.21,1.44-3.21,3.22v3.76c.14,5.18,4.45,9.26,9.63,9.11h11.48c5.18,.02,9.39-4.16,9.41-9.34v-3.54h0c0-1.78-1.43-3.22-3.21-3.22h0Z"/>
    </g>
  </g>
</svg>